<svg width="70" height="70" viewBox="0 0 70 70" fill="none" xmlns="http://www.w3.org/2000/svg">
<path d="M28.4375 23.1874V9.62514C28.4375 9.14098 28.8285 8.75 29.3126 8.75H40.6874C41.1715 8.75 41.5625 9.14098 41.5625 9.62514V23.1874C41.5625 23.6715 41.1715 24.0625 40.6874 24.0625H29.3126C28.8285 24.0625 28.4375 23.6715 28.4375 23.1874ZM61.25 29.3126V51.4063C61.25 57.9688 57.9688 61.25 51.4063 61.25H18.5938C12.0313 61.25 8.75 57.9688 8.75 51.4063V29.3126C8.75 28.8285 9.14098 28.4375 9.62514 28.4375H60.3749C60.859 28.4375 61.25 28.8285 61.25 29.3126ZM42.5281 40.1156L33.3434 34.4951C31.5146 33.3781 29.1638 34.6878 29.1638 36.8258V47.7547C29.1638 49.8926 31.5146 51.2053 33.3434 50.0853L42.5281 44.4649C44.1585 43.4703 44.1585 41.1131 42.5281 40.1156ZM9.62514 24.0625H23.1874C23.6715 24.0625 24.0625 23.6715 24.0625 23.1874V9.62514C24.0625 9.14098 23.6715 8.75 23.1874 8.75H18.5938C12.0313 8.75 8.75 12.0313 8.75 18.5938V23.1874C8.75 23.6715 9.14098 24.0625 9.62514 24.0625ZM51.4063 8.75H46.8126C46.3285 8.75 45.9375 9.14098 45.9375 9.62514V23.1874C45.9375 23.6715 46.3285 24.0625 46.8126 24.0625H60.3749C60.859 24.0625 61.25 23.6715 61.25 23.1874V18.5938C61.25 12.0313 57.9688 8.75 51.4063 8.75Z" fill="#F78600"/>
</svg>
