<svg width="70" height="70" viewBox="0 0 70 70" fill="none" xmlns="http://www.w3.org/2000/svg">
<g id="book-open-bookmark">
<path id="book-open-bookmark_2" d="M32.6372 16.5258C32.751 16.6833 32.8124 16.8787 32.8124 17.0741V55.5565C32.8124 56.2128 32.1212 56.6094 31.535 56.3177C24.5787 52.8469 17.5989 52.8558 10.6426 54.8362C9.68012 55.0987 8.74707 54.428 8.74707 53.4655V15.5196C8.74707 14.9567 9.07056 14.4259 9.57806 14.1838C14.3672 11.9029 19.4453 11.2581 24.7303 11.8998C28.0116 12.2965 30.8202 14.032 32.6372 16.5258ZM60.4189 14.1838C58.3218 13.1834 56.1603 12.5504 53.9582 12.1508V29.1666L49.5832 26.6583L45.2082 29.1666V11.9115C41.9562 12.3199 39.168 14.0467 37.3626 16.5229C37.2488 16.6804 37.1874 16.8758 37.1874 17.0712V55.5537C37.1874 56.2099 37.8786 56.6065 38.4649 56.3149C45.4211 52.844 52.401 52.853 59.3572 54.8334C60.3197 55.0959 61.2528 54.4248 61.2528 53.4623V15.5164C61.2498 14.9535 60.9264 14.4229 60.4189 14.1838Z" fill="#F78600"/>
</g>
</svg>
