<svg width="70" height="70" viewBox="0 0 70 70" fill="none" xmlns="http://www.w3.org/2000/svg">
<g id="book-bookmark">
<path id="book-bookmark_2" d="M53.9587 6.5625H46.667V29.1667L40.8337 25.8331L35.0003 29.1667V6.5625H20.417C13.3645 6.5625 9.47949 10.4475 9.47949 17.5V52.5C9.47949 59.0421 13.8749 63.4375 20.417 63.4375H53.9587C57.5753 63.4375 60.5212 60.4946 60.5212 56.875V39.375V13.125C60.5212 9.50542 57.5753 6.5625 53.9587 6.5625ZM56.1462 56.875C56.1462 58.0825 55.1632 59.0625 53.9587 59.0625H20.417C14.4962 59.0625 13.8545 54.4717 13.8545 52.5C13.8545 50.5283 14.4962 45.9375 20.417 45.9375H53.9587C54.3816 45.9375 54.7903 45.888 55.1898 45.8122C55.3182 45.7888 55.4404 45.7449 55.5658 45.7128C55.7583 45.6633 55.9595 45.6283 56.1462 45.5612V56.875Z" fill="#F78600"/>
</g>
</svg>
