<svg width="50" height="50" viewBox="0 0 50 50" fill="none" xmlns="http://www.w3.org/2000/svg">
<path d="M42.0625 36.6458L28.3334 43.0208C26.2292 44 23.7708 44 21.6667 43.0208L7.9375 36.6458C5.6875 35.6042 5.6875 32.3958 7.9375 31.3541L8.2292 31.2291L20.3541 36.8333C21.8125 37.5208 23.375 37.875 25 37.875C26.625 37.875 28.1875 37.5208 29.6459 36.8333L41.7708 31.2291L42.0625 31.3541C44.3125 32.3958 44.3125 35.6042 42.0625 36.6458ZM42.0625 22.3333L41.7917 22.2083L32.0833 26.7291L29.6459 27.8542C28.1875 28.5208 26.625 28.875 25 28.875C23.375 28.875 21.8125 28.5208 20.3541 27.8542L17.9167 26.7291L8.20834 22.2083L7.9375 22.3333C5.6875 23.3958 5.6875 26.6041 7.9375 27.6458L11.9375 29.5L21.6667 34C22.7292 34.5 23.8542 34.75 25 34.75C26.1458 34.75 27.2709 34.5 28.3334 34L38.0625 29.5L42.0625 27.6458C44.3125 26.6041 44.3125 23.3958 42.0625 22.3333ZM42.0625 13.3542L28.3334 6.97918C27.2709 6.50001 26.1458 6.25 25 6.25C23.8542 6.25 22.7292 6.50001 21.6667 6.97918L7.9375 13.3542C5.6875 14.3958 5.6875 17.6042 7.9375 18.6459L8.20834 18.7709L10.0625 19.625L11.9167 20.5L21.6667 25.0209C22.7292 25.5 23.8542 25.75 25 25.75C26.1458 25.75 27.2709 25.5 28.3334 25.0209L38.0833 20.5L39.9375 19.625L41.7917 18.7709L42.0625 18.6459C44.3125 17.6042 44.3125 14.3958 42.0625 13.3542Z" fill="#F78600"/>
</svg>
