<svg width="50" height="50" viewBox="0 0 50 50" fill="none" xmlns="http://www.w3.org/2000/svg">
<path d="M38.2377 36.7625C38.644 37.1687 38.644 37.8292 38.2377 38.2355C38.0335 38.4396 37.7669 38.5396 37.5002 38.5396C37.2335 38.5396 36.9669 38.4376 36.7627 38.2355L25.0002 26.4729L13.2377 38.2355C13.0335 38.4396 12.7669 38.5396 12.5002 38.5396C12.2335 38.5396 11.9669 38.4376 11.7627 38.2355C11.3564 37.8292 11.3564 37.1687 11.7627 36.7625L23.5252 25L11.7627 13.2375C11.3564 12.8313 11.3564 12.1708 11.7627 11.7645C12.1689 11.3583 12.8294 11.3583 13.2356 11.7645L24.9981 23.5271L36.7606 11.7645C37.1669 11.3583 37.8273 11.3583 38.2335 11.7645C38.6398 12.1708 38.6398 12.8313 38.2335 13.2375L26.4731 25L38.2377 36.7625Z" fill="#F78600"/>
</svg>
