<svg width="50" height="50" viewBox="0 0 50 50" fill="none" xmlns="http://www.w3.org/2000/svg">
<path d="M41.4585 40.4584C41.5647 41.0896 41.0771 41.6667 40.4375 41.6667H9.56265C8.92098 41.6667 8.43338 41.0896 8.54171 40.4584L9.39175 35.4167C9.44175 35.1167 9.70221 34.8958 10.0085 34.8958H39.9939C40.2981 34.8958 40.5584 35.1167 40.6105 35.4167L41.4585 40.4584ZM40.6042 15.6875L35.3959 18.8334C34.4542 19.4021 33.2313 19.1271 32.625 18.2083L26.7105 9.25212C25.9021 8.02712 24.1042 8.02502 23.2917 9.25002L17.3751 18.1875C16.771 19.125 15.5418 19.3958 14.5834 18.8125L9.39595 15.6875C7.85428 14.75 5.93763 16.0834 6.2918 17.8542L9.3063 31.2833C9.37088 31.5687 9.62303 31.7708 9.91678 31.7708H40.0834C40.3751 31.7708 40.6293 31.5687 40.6939 31.2833L43.7084 17.8542C44.0626 16.0834 42.1459 14.75 40.6042 15.6875Z" fill="#F78600"/>
</svg>
