<svg width="51" height="50" viewBox="0 0 51 50" fill="none" xmlns="http://www.w3.org/2000/svg">
<g id="discord">
<path id="discord_2" d="M39.9792 13.0418C37.2709 11.8126 34.375 10.9167 31.375 10.4167C31 11.0626 30.5833 11.9376 30.2916 12.6251C27.0833 12.1667 23.9167 12.1667 20.75 12.6251C20.4583 11.9376 20.0209 11.0626 19.6667 10.4167C16.6459 10.9167 13.75 11.8126 11.0625 13.0418C5.60418 21.0001 4.12501 28.7709 4.87501 36.4376C8.50001 39.0417 12 40.6251 15.4375 41.6667C16.2709 40.5417 17.0417 39.3334 17.6875 38.0626C16.4375 37.6042 15.25 37.0417 14.125 36.3751C14.4167 36.1667 14.7084 35.9376 14.9792 35.7084C21.8334 38.8126 29.2917 38.8126 36.0625 35.7084C36.3542 35.9376 36.625 36.1667 36.9167 36.3751C35.7917 37.0417 34.6041 37.6042 33.3541 38.0626C34 39.3334 34.7708 40.5417 35.6042 41.6667C39.0417 40.6251 42.5625 39.0417 46.1667 36.4376C47.0834 27.5626 44.7292 19.8543 40.0208 13.0418H39.9792ZM18.5833 31.6043C16.5208 31.6043 14.8333 29.7293 14.8333 27.4376C14.8333 25.1459 16.4791 23.2709 18.5833 23.2709C20.6875 23.2709 22.375 25.1459 22.3334 27.4376C22.3334 29.7293 20.6666 31.6043 18.5833 31.6043ZM32.4167 31.6043C30.3542 31.6043 28.6666 29.7293 28.6666 27.4376C28.6666 25.1459 30.3125 23.2709 32.4167 23.2709C34.5208 23.2709 36.2083 25.1459 36.1667 27.4376C36.1667 29.7293 34.5208 31.6043 32.4167 31.6043Z" fill="#F78600"/>
</g>
</svg>
