<svg width="16" height="30" viewBox="0 0 16 30" fill="none" xmlns="http://www.w3.org/2000/svg">
<path d="M7.16667 1.45834V3.63262C4.0944 4.12751 1.75 6.70339 1.75 9.76604C1.75 11.6117 2.65137 13.0356 3.84896 13.9523C5.04655 14.8691 6.48958 15.3802 7.84375 15.8994C9.19792 16.4187 10.4632 16.946 11.2969 17.587C12.1305 18.2279 12.5833 18.8769 12.5833 20.1507C12.5833 22.3898 10.641 24.3045 8.25 24.3045C5.84635 24.3045 3.91667 22.4547 3.91667 20.1507V19.1122H1.75V20.1507C1.75 23.2295 4.0944 25.7892 7.16667 26.2841V28.4583H9.33333V26.2841C12.4141 25.7851 14.75 23.189 14.75 20.1507C14.75 18.3009 13.8486 16.8852 12.651 15.9644C11.4535 15.0435 10.0104 14.504 8.65625 13.9848C7.30208 13.4656 6.03678 12.9666 5.20313 12.3297C4.36947 11.6929 3.91667 11.0317 3.91667 9.76604C3.91667 7.49035 5.85059 5.61219 8.25 5.61219C10.6536 5.61219 12.5833 7.46195 12.5833 9.76604V10.8045H14.75V9.76604C14.75 6.68716 12.4056 4.12751 9.33333 3.63262V1.45834H7.16667Z" fill="#F78600" stroke="#F78600" stroke-width="2"/>
</svg>
