<svg width="46" height="45" viewBox="0 0 46 45" fill="none" xmlns="http://www.w3.org/2000/svg">
<g id="envelope">
<path id="envelope_2" d="M34.25 38.9062H11.75C7.21625 38.9062 4.71875 36.4088 4.71875 31.875V15C4.71875 10.4662 7.21625 7.96875 11.75 7.96875H34.25C38.7837 7.96875 41.2812 10.4662 41.2812 15V31.875C41.2812 36.4088 38.7837 38.9062 34.25 38.9062ZM11.75 10.7812C8.79313 10.7812 7.53125 12.0431 7.53125 15V31.875C7.53125 34.8319 8.79313 36.0938 11.75 36.0938H34.25C37.2069 36.0938 38.4688 34.8319 38.4688 31.875V15C38.4688 12.0431 37.2069 10.7812 34.25 10.7812H11.75ZM24.9295 24.7106L34.1392 18.0131C34.7673 17.5575 34.9062 16.6763 34.4487 16.0481C33.993 15.4219 33.1158 15.2794 32.4839 15.7387L23.2737 22.4363C23.1087 22.5563 22.8894 22.5563 22.7244 22.4363L13.5142 15.7387C12.8805 15.2794 12.0051 15.4238 11.5495 16.0481C11.092 16.6763 11.2308 17.5556 11.8589 18.0131L21.0687 24.7125C21.6462 25.1325 22.3232 25.3406 22.9982 25.3406C23.6732 25.3406 24.3538 25.1306 24.9295 24.7106Z" fill="black"/>
</g>
</svg>
