<svg width="50" height="50" viewBox="0 0 50 50" fill="none" xmlns="http://www.w3.org/2000/svg">
<path d="M40.625 29.1666C40.625 37.7812 33.6167 44.7916 25 44.7916C16.3833 44.7916 9.375 37.7812 9.375 29.1666C9.375 24.4833 10.7125 21.1479 13.8458 18.0125C14.4604 17.3958 15.1563 16.7791 15.8771 16.1416C18.8271 13.5291 21.875 10.8271 21.875 6.24793C21.875 5.8646 22.0875 5.51035 22.425 5.3291C22.7625 5.14785 23.1729 5.16665 23.4938 5.38123C23.6188 5.46457 35.2396 13.4291 29.2812 27.1124C30.6792 26.3312 32.3521 25.0499 33.3792 23.0603C34.0375 21.7853 34.3729 20.3354 34.3729 18.7479C34.3729 18.325 34.6292 17.9437 35.0208 17.7833C35.4083 17.6229 35.8604 17.7146 36.1583 18.0167C38.9979 20.9021 40.625 24.9666 40.625 29.1666Z" fill="#F78600"/>
</svg>
