<svg width="25" height="24" viewBox="0 0 25 24" fill="none" xmlns="http://www.w3.org/2000/svg">
<path d="M14.1107 5.14547C14.0676 5.03098 13.896 5.08006 13.92 5.2V5.2V5.2C14.013 5.66517 14.4215 6 14.8958 6H19.5L11.5685 5.35738C10.7567 5.2916 10.211 6.1719 10.6309 6.86972L13.689 11.9515C13.8121 12.1559 14.1268 12.034 14.08 11.8V11.8V11.8C13.987 11.3348 13.5785 11 13.1042 11H6.5L15.6176 11.4559C16.0343 11.4767 16.3359 11.0636 16.189 10.673L14.1107 5.14547ZM14.6608 3.80388C14.5673 3.33646 14.1569 3 13.6802 3H6.5C5.94772 3 5.5 3.44772 5.5 4V20.5C5.5 20.7761 5.72386 21 6 21V21C6.27614 21 6.5 20.7761 6.5 20.5V13C6.5 12.4477 6.94772 12 7.5 12H12.2802C12.7569 12 13.1673 12.3365 13.2608 12.8039L13.3392 13.1961C13.4327 13.6635 13.8431 14 14.3198 14H19.5C20.0523 14 20.5 13.5523 20.5 13V6C20.5 5.44772 20.0523 5 19.5 5H15.7198C15.2431 5 14.8327 4.66354 14.7392 4.19612L14.6608 3.80388Z" fill="#F78600"/>
</svg>
