<svg width="50" height="50" viewBox="0 0 50 50" fill="none" xmlns="http://www.w3.org/2000/svg">
<path d="M37.5 14.5833H27.0833L20.8333 8.33334H12.5C8.33333 8.33334 6.25 10.4167 6.25 14.5833V35.4167C6.25 39.5833 8.33333 41.6667 12.5 41.6667H37.5C41.6667 41.6667 43.75 39.5833 43.75 35.4167V20.8333C43.75 16.6667 41.6667 14.5833 37.5 14.5833ZM25.0626 30.2708L20.8959 34.4375C20.7521 34.5813 20.5789 34.6958 20.3873 34.775C20.1956 34.8541 19.9938 34.8958 19.7896 34.8958C19.5855 34.8958 19.3832 34.8541 19.1915 34.775C18.9998 34.6958 18.8271 34.5813 18.6834 34.4375L14.5167 30.2708C13.9063 29.6604 13.9063 28.6708 14.5167 28.0604C15.1271 27.45 16.1168 27.45 16.7272 28.0604L18.2271 29.5604V22.9167C18.2271 22.0542 18.9271 21.3542 19.7896 21.3542C20.6521 21.3542 21.3521 22.0542 21.3521 22.9167V29.5604L22.8521 28.0604C23.4625 27.45 24.4521 27.45 25.0626 28.0604C25.673 28.6708 25.673 29.6625 25.0626 30.2708Z" fill="#F78600"/>
</svg>
