<svg width="50" height="50" viewBox="0 0 50 50" fill="none" xmlns="http://www.w3.org/2000/svg">
<path fill-rule="evenodd" clip-rule="evenodd" d="M37.5 43.75H30.8334C30.4876 43.75 30.2083 43.4708 30.2083 43.1249V34.375C30.2083 31.498 27.8771 29.1667 25 29.1667C22.1229 29.1667 19.7917 31.498 19.7917 34.375V43.1249C19.7917 43.4708 19.5124 43.75 19.1666 43.75H12.5C8.33333 43.75 6.25 41.6667 6.25 37.5V24.273C6.25 20.1105 7.3397 19.471 9.22928 17.8877L21.6543 7.46871C23.5897 5.8458 26.4126 5.8458 28.348 7.46871L40.773 17.8877C42.6605 19.471 43.752 20.1105 43.752 24.273V37.5C43.7499 41.6667 41.6667 43.75 37.5 43.75Z" fill="#F78600"/>
</svg>
