<svg width="51" height="50" viewBox="0 0 51 50" fill="none" xmlns="http://www.w3.org/2000/svg">
<g id="instagram">
<path id="instagram_2" d="M44.1249 17.2708C43.979 14.2708 43.2915 11.6042 41.104 9.4167C38.9165 7.2292 36.2499 6.54171 33.2499 6.39587C30.1457 6.22921 20.8748 6.22921 17.7915 6.39587C14.7915 6.54171 12.1457 7.2292 9.93736 9.4167C7.72903 11.6042 7.06234 14.2708 6.9165 17.2708C6.74984 20.375 6.74984 29.6459 6.9165 32.75C7.06234 35.75 7.74986 38.4167 9.93736 40.6042C12.1457 42.7917 14.7915 43.4792 17.7915 43.625C20.8957 43.7917 30.1665 43.7917 33.2499 43.625C36.2499 43.4792 38.9165 42.7917 41.104 40.6042C43.2915 38.4167 43.979 35.75 44.1249 32.75C44.2915 29.6459 44.2915 20.375 44.1249 17.2917V17.2708ZM25.4999 34.8959C20.0415 34.8959 15.604 30.4584 15.604 25C15.604 19.5417 20.0415 15.1042 25.4999 15.1042C30.9582 15.1042 35.3957 19.5417 35.3957 25C35.3957 30.4584 30.9582 34.8959 25.4999 34.8959ZM36.9998 15.625C35.854 15.625 34.9165 14.6875 34.9165 13.5417C34.9165 12.3959 35.8332 11.4584 36.9998 11.4584C38.1457 11.4584 39.0832 12.3959 39.0832 13.5417C39.0832 14.6875 38.1457 15.625 36.9998 15.625ZM32.2707 25C32.2707 28.7292 29.229 31.7709 25.4999 31.7709C21.7707 31.7709 18.729 28.7292 18.729 25C18.729 21.2709 21.7707 18.2292 25.4999 18.2292C29.229 18.2292 32.2707 21.2709 32.2707 25Z" fill="#F78600"/>
</g>
</svg>
