<svg width="25" height="24" viewBox="0 0 25 24" fill="none" xmlns="http://www.w3.org/2000/svg">
<path d="M21.676 9.60805C21.23 8.98805 20.2991 8.25007 18.4041 8.25007H15.248V5.76308C15.248 4.50708 14.624 3.34108 13.579 2.64308C12.982 2.24508 12.248 2.14305 11.566 2.36305C10.882 2.58305 10.346 3.09406 10.085 3.79506L7.95703 10.2501H5.00098C3.76098 10.2501 2.75098 11.2591 2.75098 12.5001V19.5001C2.75098 20.7411 3.76098 21.7501 5.00098 21.7501H16.405C18.901 21.7501 19.512 20.537 19.963 19.186L21.962 13.186C22.429 11.782 22.327 10.511 21.676 9.60805ZM4.25 19.5001V12.5001C4.25 12.0861 4.587 11.7501 5 11.7501H7V20.2501H5C4.587 20.2501 4.25 19.9141 4.25 19.5001ZM20.537 12.7111L18.538 18.7111C18.183 19.7781 17.9601 20.2501 16.4041 20.2501H8.5V11.7501C8.824 11.7501 9.11006 11.5421 9.21106 11.2351L11.498 4.29408C11.589 4.05308 11.78 3.87009 12.025 3.79109C12.27 3.71109 12.532 3.74907 12.746 3.89107C13.373 4.30907 13.7469 5.00908 13.7469 5.76308V9.00007C13.7469 9.41407 14.0829 9.75007 14.4969 9.75007H18.403C19.099 9.75007 20.021 9.87706 20.459 10.4851C20.815 10.9791 20.845 11.7911 20.537 12.7111Z" fill="#F78600"/>
</svg>
