<svg width="50" height="50" viewBox="0 0 50 50" fill="none" xmlns="http://www.w3.org/2000/svg">
<path d="M16.6667 26.5625H31.25V35.4167V37.5C31.25 41.6667 29.1667 43.75 25 43.75H12.5C8.33333 43.75 6.25 41.6667 6.25 37.5V12.5C6.25 8.33333 8.33333 6.25 12.5 6.25H25C29.1667 6.25 31.25 8.33333 31.25 12.5V14.5833V23.4375H16.6667C15.8042 23.4375 15.1042 24.1375 15.1042 25C15.1042 25.8625 15.8042 26.5625 16.6667 26.5625ZM45.1917 24.4021C45.1125 24.2104 44.998 24.0375 44.8542 23.8937L38.6042 17.6437C37.9938 17.0333 37.0042 17.0333 36.3937 17.6437C35.7833 18.2542 35.7833 19.2437 36.3937 19.8542L39.9771 23.4375H31.25V26.5625H39.9771L36.3937 30.1458C35.7833 30.7563 35.7833 31.7458 36.3937 32.3563C36.6979 32.6604 37.098 32.8146 37.498 32.8146C37.898 32.8146 38.2979 32.6625 38.6021 32.3563L44.8521 26.1063C44.9958 25.9625 45.1104 25.7896 45.1895 25.5979C45.35 25.2146 45.35 24.7854 45.1917 24.4021Z" fill="#F78600"/>
</svg>
