<svg width="30" height="30" viewBox="0 0 30 30" fill="none" xmlns="http://www.w3.org/2000/svg">
<path d="M18.75 17.5L17.1339 15.8839C16.6457 15.3957 16.6457 14.6043 17.1339 14.1161L18.75 12.5M17.5 15L27.5 15M7.5 5C4.73858 5 2.5 7.23858 2.5 10V20C2.5 22.7614 4.73858 25 7.5 25M7.5 5C10.2614 5 12.5 7.23858 12.5 10V20C12.5 22.7614 10.2614 25 7.5 25M7.5 5H17.5C20.2614 5 22.5 7.23858 22.5 10M7.5 25H17.5C20.2614 25 22.5 22.7614 22.5 20" stroke="#F78600" stroke-width="1.5" stroke-linecap="round"/>
</svg>
