<svg width="32" height="32" viewBox="0 0 32 32" fill="none" xmlns="http://www.w3.org/2000/svg">
<path d="M22.0694 29.0027C21.4574 29.0027 20.8415 28.92 20.2335 28.7533C12.0135 26.4973 5.50548 19.9934 3.24815 11.7787C2.73481 9.91069 3.01608 7.96401 4.04274 6.30001C5.07341 4.62801 6.76816 3.44801 8.69216 3.06401C9.97216 2.80801 11.2375 3.37869 11.8868 4.47335L13.9708 7.99333C14.9828 9.70267 14.48 11.904 12.8253 13.0053L11.3175 14.008C12.7268 16.9014 15.0973 19.2787 17.9786 20.6867L18.9949 19.1707C20.1029 17.5187 22.3041 17.024 24.0121 18.0413L27.5362 20.1427C28.6269 20.7933 29.1908 22.0667 28.9428 23.3093C28.5588 25.2333 27.3788 26.928 25.7081 27.9587C24.5854 28.6493 23.3361 29.0027 22.0694 29.0027ZM9.30414 5.00001C9.2388 5.00001 9.17217 5.00669 9.10817 5.02003C7.70284 5.30136 6.48551 6.148 5.74684 7.34933C5.01484 8.536 4.81348 9.92135 5.17881 11.248C7.24948 18.7853 13.2215 24.7547 20.7628 26.824C22.0908 27.188 23.472 26.9854 24.6573 26.2547C25.8573 25.5147 26.7055 24.296 26.9815 22.9147C27.0642 22.5 26.8762 22.0747 26.5108 21.8573L22.9881 19.756C22.1947 19.284 21.1707 19.5147 20.656 20.2813L19.1694 22.5014C18.9027 22.8987 18.3882 23.0507 17.9535 22.8667C14.0029 21.2147 10.7882 17.9933 9.13487 14.028C8.95087 13.5853 9.10534 13.076 9.50401 12.8107L11.7188 11.3373C12.4868 10.8267 12.7201 9.804 12.2494 9.01067L10.1655 5.49199C9.9828 5.18266 9.65214 5.00001 9.30414 5.00001Z" fill="#F78600"/>
</svg>
