<svg width="24" height="16" viewBox="0 0 24 16" fill="none" xmlns="http://www.w3.org/2000/svg">
<path d="M0.857143 2.11103H18.8571C19.0845 2.11103 19.3025 2.01738 19.4632 1.85068C19.624 1.68398 19.7143 1.45789 19.7143 1.22214C19.7143 0.986393 19.624 0.760301 19.4632 0.593602C19.3025 0.426903 19.0845 0.333252 18.8571 0.333252H0.857143C0.629814 0.333252 0.411797 0.426903 0.251051 0.593602C0.0903058 0.760301 0 0.986393 0 1.22214C0 1.45789 0.0903058 1.68398 0.251051 1.85068C0.411797 2.01738 0.629814 2.11103 0.857143 2.11103Z" fill="#F78600"/>
<path d="M11.7857 7.11108H1.07143C0.787268 7.11108 0.514746 7.20473 0.313814 7.37143C0.112882 7.53813 0 7.76422 0 7.99997C0 8.23572 0.112882 8.46181 0.313814 8.62851C0.514746 8.79521 0.787268 8.88886 1.07143 8.88886H11.7857C12.0699 8.88886 12.3424 8.79521 12.5433 8.62851C12.7443 8.46181 12.8571 8.23572 12.8571 7.99997C12.8571 7.76422 12.7443 7.53813 12.5433 7.37143C12.3424 7.20473 12.0699 7.11108 11.7857 7.11108Z" fill="#F78600"/>
<path d="M9.42857 13.8889H0.857143C0.629814 13.8889 0.411797 13.9826 0.251051 14.1493C0.0903058 14.316 0 14.5421 0 14.7778C0 15.0136 0.0903058 15.2396 0.251051 15.4063C0.411797 15.573 0.629814 15.6667 0.857143 15.6667H9.42857C9.6559 15.6667 9.87392 15.573 10.0347 15.4063C10.1954 15.2396 10.2857 15.0136 10.2857 14.7778C10.2857 14.5421 10.1954 14.316 10.0347 14.1493C9.87392 13.9826 9.6559 13.8889 9.42857 13.8889Z" fill="#F78600"/>
<path d="M23.1436 9.70359H19.7149V6.29619C19.7149 6.07026 19.6246 5.85359 19.4639 5.69384C19.3031 5.53408 19.0851 5.44434 18.8578 5.44434C18.6305 5.44434 18.4124 5.53408 18.2517 5.69384C18.0909 5.85359 18.0006 6.07026 18.0006 6.29619V9.70359H14.572C14.3447 9.70359 14.1266 9.79334 13.9659 9.9531C13.8052 10.1128 13.7148 10.3295 13.7148 10.5554C13.7148 10.7814 13.8052 10.998 13.9659 11.1578C14.1266 11.3176 14.3447 11.4073 14.572 11.4073H18.0006V14.8147C18.0006 15.0406 18.0909 15.2573 18.2517 15.4171C18.4124 15.5768 18.6305 15.6666 18.8578 15.6666C19.0851 15.6666 19.3031 15.5768 19.4639 15.4171C19.6246 15.2573 19.7149 15.0406 19.7149 14.8147V11.4073H23.1436C23.3709 11.4073 23.5889 11.3176 23.7497 11.1578C23.9104 10.998 24.0007 10.7814 24.0007 10.5554C24.0007 10.3295 23.9104 10.1128 23.7497 9.9531C23.5889 9.79334 23.3709 9.70359 23.1436 9.70359Z" fill="#F78600"/>
</svg>
