<svg width="75" height="75" viewBox="0 0 75 75" fill="none" xmlns="http://www.w3.org/2000/svg">
<path d="M32.1342 52.3499C31.0405 52.3499 29.9469 52.0686 28.9375 51.503C26.8532 50.3342 25.6092 48.2127 25.6092 45.8252V29.1748C25.6092 26.7873 26.8532 24.6658 28.9375 23.497C31.0344 22.3251 33.497 22.3721 35.5408 23.6252L49.5377 32.1877C51.4033 33.3314 52.5188 35.3156 52.5188 37.5031C52.5188 39.6906 51.4033 41.6747 49.5377 42.8185L35.5408 51.3809C34.4814 52.0247 33.3092 52.3499 32.1342 52.3499ZM32.1407 27.3438C31.7282 27.3438 31.397 27.4903 31.2283 27.5871C30.947 27.7434 30.2937 28.2154 30.2937 29.1748V45.8252C30.2937 46.7877 30.947 47.2566 31.2283 47.4129C31.5126 47.5722 32.2593 47.8903 33.0936 47.3778L47.0905 38.8153C47.7593 38.4059 47.8313 37.7594 47.8313 37.5C47.8313 37.2406 47.7593 36.594 47.0905 36.1877L33.0936 27.6253C32.753 27.4128 32.4282 27.3438 32.1407 27.3438ZM37.5 71.0938C18.975 71.0938 3.90625 56.025 3.90625 37.5C3.90625 18.975 18.975 3.90625 37.5 3.90625C56.025 3.90625 71.0938 18.975 71.0938 37.5C71.0938 56.025 56.025 71.0938 37.5 71.0938ZM37.5 8.59375C21.5594 8.59375 8.59375 21.5594 8.59375 37.5C8.59375 53.4406 21.5594 66.4062 37.5 66.4062C53.4406 66.4062 66.4062 53.4406 66.4062 37.5C66.4062 21.5594 53.4406 8.59375 37.5 8.59375Z" fill="#F78600"/>
</svg>
