<svg width="24" height="24" viewBox="0 0 24 24" fill="none" xmlns="http://www.w3.org/2000/svg">
<path d="M12.3602 4C12.8369 4 13.2473 4.33646 13.3408 4.80388L13.42 5.2V5.2C13.513 5.66517 13.9215 6 14.3958 6H18C18.5523 6 19 6.44772 19 7V12C19 12.5523 18.5523 13 18 13H14.6398C14.1631 13 13.7527 12.6635 13.6592 12.1961L13.58 11.8V11.8C13.487 11.3348 13.0785 11 12.6042 11H7C6.44772 11 6 10.5523 6 10V5C6 4.44772 6.44772 4 7 4H12.3602ZM14.1608 3.80388C14.0673 3.33646 13.6569 3 13.1802 3H6C5.44772 3 5 3.44772 5 4V20.5C5 20.7761 5.22386 21 5.5 21V21C5.77614 21 6 20.7761 6 20.5V13C6 12.4477 6.44772 12 7 12H11.7802C12.2569 12 12.6673 12.3365 12.7608 12.8039L12.8392 13.1961C12.9327 13.6635 13.3431 14 13.8198 14H19C19.5523 14 20 13.5523 20 13V6C20 5.44772 19.5523 5 19 5H15.2198C14.7431 5 14.3327 4.66354 14.2392 4.19612L14.1608 3.80388Z" fill="#F78600"/>
</svg>
