<svg width="50" height="50" viewBox="0 0 50 50" fill="none" xmlns="http://www.w3.org/2000/svg">
<g id="sort-descending">
<path id="sort-descending_2" d="M41.6667 14.5833H8.33333C7.18125 14.5833 6.25 13.65 6.25 12.5C6.25 11.35 7.18125 10.4166 8.33333 10.4166H41.6667C42.8187 10.4166 43.75 11.35 43.75 12.5C43.75 13.65 42.8187 14.5833 41.6667 14.5833ZM37.5 25C37.5 23.85 36.5687 22.9166 35.4167 22.9166H14.5833C13.4312 22.9166 12.5 23.85 12.5 25C12.5 26.15 13.4312 27.0833 14.5833 27.0833H35.4167C36.5687 27.0833 37.5 26.15 37.5 25ZM31.25 37.5C31.25 36.35 30.3187 35.4166 29.1667 35.4166H20.8333C19.6812 35.4166 18.75 36.35 18.75 37.5C18.75 38.65 19.6812 39.5833 20.8333 39.5833H29.1667C30.3187 39.5833 31.25 38.65 31.25 37.5Z" fill="#F78600"/>
</g>
</svg>
