<svg width="40" height="40" viewBox="0 0 40 40" fill="none" xmlns="http://www.w3.org/2000/svg">
<path d="M35.8834 34.1167L29.4817 27.715C31.6217 25.1767 32.9167 21.905 32.9167 18.3333C32.9167 10.2917 26.375 3.75 18.3333 3.75C10.2917 3.75 3.75 10.2917 3.75 18.3333C3.75 26.375 10.2917 32.9167 18.3333 32.9167C21.905 32.9167 25.1767 31.6217 27.715 29.4817L34.1166 35.8833C34.36 36.1267 34.68 36.25 35 36.25C35.32 36.25 35.64 36.1283 35.8834 35.8833C36.3717 35.3967 36.3717 34.605 35.8834 34.1167ZM6.25 18.3333C6.25 11.67 11.67 6.25 18.3333 6.25C24.9967 6.25 30.4167 11.67 30.4167 18.3333C30.4167 24.9967 24.9967 30.4167 18.3333 30.4167C11.67 30.4167 6.25 24.9967 6.25 18.3333Z" fill="#F78600"/>
</svg>
