<svg width="56" height="56" viewBox="0 0 56 56" fill="none" xmlns="http://www.w3.org/2000/svg">
<path d="M37.0603 16.5845L14.9653 18.1754C12.0013 18.3851 9.68363 20.5003 9.19155 23.4268C8.70328 26.3384 10.1986 29.0758 12.9115 30.2363L20.0767 33.3007L20.5056 41.0818C20.6669 44.029 22.7278 46.3704 25.6322 46.9064C27.3683 47.2269 29.0539 46.8422 30.3918 45.9053C31.3011 45.2687 32.0512 44.3752 32.5416 43.2769L41.5935 23.0585C42.264 21.5636 42.1026 19.8719 41.1658 18.5339C40.229 17.196 38.6944 16.4657 37.0603 16.5845ZM39.3132 22.0366L30.2614 42.255C29.3564 44.2722 27.4476 44.6993 26.0871 44.4474C24.7405 44.198 23.1231 43.1312 23.0014 40.9437L22.5676 33.0804L29.9358 27.9211C30.501 27.5254 30.6386 26.7454 30.2428 26.1802C29.847 25.615 29.0671 25.4775 28.5019 25.8732L21.1337 31.0325L13.893 27.9355C11.879 27.073 11.4283 25.1892 11.6559 23.8376C11.8032 22.9612 12.2896 21.9676 13.2043 21.3271C13.7135 20.9705 14.3545 20.7231 15.1447 20.6662L37.2398 19.0754C37.9876 19.0218 38.6887 19.3548 39.117 19.9665C39.5452 20.5781 39.6194 21.3523 39.3132 22.0366Z" fill="black"/>
</svg>
