<svg width="50" height="50" viewBox="0 0 50 50" fill="none" xmlns="http://www.w3.org/2000/svg">
<path d="M45.6727 36.2127C45.5664 36.469 45.4145 36.698 45.2208 36.8918L41.0562 41.0564C40.6499 41.4626 40.1165 41.6667 39.5832 41.6667C39.0498 41.6667 38.5164 41.4626 38.1102 41.0564C37.2956 40.2418 37.2956 38.925 38.1102 38.1104L38.7208 37.5001H36.3353C33.7895 37.5001 31.4207 36.3605 29.829 34.373L16.9145 18.2313C16.1207 17.2375 14.9352 16.6688 13.6623 16.6688H6.24984C5.09775 16.6688 4.1665 15.7354 4.1665 14.5854C4.1665 13.4354 5.09775 12.5021 6.24984 12.5021H13.6643C16.2102 12.5021 18.579 13.6416 20.1707 15.6291L33.0852 31.7709C33.879 32.7647 35.0645 33.3334 36.3374 33.3334H38.7228L38.1122 32.7231C37.2976 31.9085 37.2976 30.5917 38.1122 29.7771C38.9268 28.9625 40.2436 28.9625 41.0582 29.7771L45.2228 33.9417C45.4166 34.1355 45.5685 34.3645 45.6747 34.6207C45.8831 35.1291 45.8831 35.7044 45.6727 36.2127ZM29.1645 21.8751C29.777 21.8751 30.3811 21.6084 30.7916 21.0938L33.0852 18.2292C33.879 17.2355 35.0645 16.6667 36.3374 16.6667H38.7228L38.1122 17.2771C37.2976 18.0917 37.2976 19.4085 38.1122 20.2231C38.5185 20.6293 39.0519 20.8334 39.5852 20.8334C40.1185 20.8334 40.6519 20.6293 41.0582 20.2231L45.2228 16.0584C45.4166 15.8647 45.5685 15.6357 45.6747 15.3794C45.8851 14.8711 45.8851 14.2957 45.6747 13.7874C45.5685 13.5312 45.4166 13.3021 45.2228 13.1084L41.0582 8.94376C40.2436 8.12918 38.9268 8.12918 38.1122 8.94376C37.2976 9.75835 37.2976 11.0751 38.1122 11.8897L38.7228 12.5001H36.3374C33.7915 12.5001 31.4226 13.6396 29.8331 15.6271L27.5414 18.4897C26.8206 19.3876 26.9686 20.7001 27.8644 21.4188C28.2498 21.7251 28.7082 21.8751 29.1645 21.8751ZM19.2081 28.9063L16.9145 31.7709C16.1207 32.7647 14.9352 33.3334 13.6623 33.3334H6.24984C5.09775 33.3334 4.1665 34.2667 4.1665 35.4167C4.1665 36.5667 5.09775 37.5001 6.24984 37.5001H13.6643C16.2102 37.5001 18.5791 36.3605 20.1686 34.373L22.4603 31.5105C23.1811 30.6126 23.0331 29.3001 22.1373 28.5813C21.2331 27.8646 19.9248 28.0105 19.2081 28.9063Z" fill="#F78600"/>
</svg>
