<svg width="50" height="50" viewBox="0 0 50 50" fill="none" xmlns="http://www.w3.org/2000/svg">
<g id="tags">
<path id="tags_2" d="M31.2504 43.2292C30.3879 43.2292 29.6879 42.5292 29.6879 41.6667C29.6879 40.8042 30.3879 40.1042 31.2504 40.1042C32.1233 40.1042 33.0359 39.623 33.9693 38.6751L42.7899 29.8334C43.7732 28.8584 44.2692 27.9458 44.2712 27.1167C44.2733 26.2812 43.7755 25.3584 42.7922 24.375L29.4588 11.0208C28.8129 10.3645 27.9463 9.97495 27.0047 9.91453C26.1422 9.85828 25.4878 9.11454 25.5462 8.25412C25.6003 7.39162 26.4212 6.75006 27.2045 6.79589C28.9191 6.90631 30.5089 7.62714 31.6797 8.82505L45.0024 22.1687C46.5961 23.7604 47.4004 25.4292 47.3962 27.125C47.3942 28.8167 46.5858 30.4729 44.9983 32.0499L36.1899 40.877C34.6566 42.4333 32.9921 43.2292 31.2504 43.2292ZM35.5732 30.9438L26.7547 39.7709C24.2297 42.3001 21.615 42.3001 19.0879 39.7709L5.75246 26.4229C4.7358 25.4062 4.16504 24.025 4.16504 22.5854V11.9501C4.16504 9.95214 5.78376 8.33334 7.77959 8.33334H18.4045C19.842 8.33334 21.2211 8.90417 22.2378 9.92292L35.5732 23.2708C38.1857 25.8875 38.0982 28.4146 35.5732 30.9438ZM13.6463 15.7291C13.6463 14.5791 12.7171 13.6458 11.5671 13.6458H11.5462C10.4004 13.6458 9.47739 14.5791 9.47739 15.7291C9.47739 16.8791 10.4192 17.8125 11.565 17.8125C12.7171 17.8125 13.6463 16.8791 13.6463 15.7291Z" fill="#F78600"/>
</g>
</svg>
