<svg width="51" height="50" viewBox="0 0 51 50" fill="none" xmlns="http://www.w3.org/2000/svg">
<g id="telegram">
<path id="telegram_2" d="M9.33336 23.875C19.3959 19.4583 26.1042 16.5625 29.4792 15.1458C39.0626 11.125 41.0625 10.4375 42.3542 10.4166C42.6459 10.4166 43.2709 10.4791 43.6876 10.8125C44.0417 11.1041 44.125 11.4791 44.1875 11.75C44.2292 12.0208 44.2917 12.6458 44.25 13.125C43.7292 18.625 41.4792 31.9375 40.3334 38.0833C39.8542 40.6875 38.8959 41.5625 37.9792 41.6458C35.9792 41.8333 34.4583 40.3125 32.5 39.0416C29.4583 37.0416 27.7501 35.7916 24.7917 33.8333C21.3751 31.5833 23.5834 30.3333 25.5417 28.3125C26.0417 27.7916 34.8959 19.7083 35.0625 18.9583C35.0834 18.875 35.1042 18.5208 34.8959 18.3541C34.6876 18.1666 34.3959 18.2291 34.1876 18.2916C33.8751 18.3541 29.0209 21.5833 19.625 27.9791C18.25 28.9374 17.0001 29.3958 15.8751 29.375C14.6459 29.3541 12.2709 28.6666 10.5 28.1041C8.33335 27.3958 6.62506 27.0208 6.7709 25.8125C6.85423 25.1875 7.70836 24.5416 9.33336 23.8958V23.875Z" fill="#F78600"/>
</g>
</svg>
