<svg width="51" height="50" viewBox="0 0 51 50" fill="none" xmlns="http://www.w3.org/2000/svg">
<g id="twitter">
<path id="twitter_2" d="M42.0415 16.6458C42.0623 17 42.0623 17.375 42.0623 17.75C42.0623 28.875 33.479 41.6875 17.7707 41.6875C12.9373 41.6875 8.43734 40.3125 4.6665 37.9167C5.354 38 6.02068 38.0208 6.72902 38.0208C10.729 38.0208 14.3957 36.6875 17.3332 34.4375C13.5832 34.3542 10.4373 31.9375 9.354 28.6042C9.87484 28.6875 10.4165 28.7291 10.9582 28.7291C11.729 28.7291 12.4998 28.625 13.2082 28.4375C9.29152 27.6458 6.354 24.2708 6.354 20.1875V20.0833C7.49983 20.7083 8.81234 21.1041 10.2082 21.1458C7.91651 19.625 6.39567 17.0625 6.39567 14.1458C6.39567 12.5833 6.81234 11.1458 7.56234 9.89582C11.7707 15 18.0832 18.3333 25.1665 18.7083C25.0415 18.0833 24.9582 17.4375 24.9582 16.7917C24.9582 12.1458 28.7707 8.375 33.4998 8.375C35.9582 8.375 38.1873 9.39581 39.729 11.0208C41.6665 10.6666 43.4998 9.95834 45.1457 9.00001C44.5207 10.9583 43.1665 12.6041 41.3957 13.625C43.104 13.4375 44.7707 12.9792 46.3123 12.3333C45.1457 14 43.6873 15.4791 42.0207 16.6875L42.0415 16.6458Z" fill="#F78600"/>
</g>
</svg>
