<svg width="50" height="50" viewBox="0 0 50 50" fill="none" xmlns="http://www.w3.org/2000/svg">
<path d="M24.9998 4.16667C13.4936 4.16667 4.1665 13.4938 4.1665 25C4.1665 36.5063 13.4936 45.8333 24.9998 45.8333C36.5061 45.8333 45.8332 36.5063 45.8332 25C45.8332 13.4938 36.5061 4.16667 24.9998 4.16667ZM25.0166 14.5833C28.4687 14.5833 31.2666 17.3813 31.2666 20.8333C31.2666 24.2854 28.4687 27.0833 25.0166 27.0833C21.5645 27.0833 18.7666 24.2854 18.7666 20.8333C18.7666 17.3813 21.5645 14.5833 25.0166 14.5833ZM24.9998 42.7083C20.3957 42.7083 16.1874 40.9375 13.0415 38.0417C13.9582 35.1667 16.3333 32.4374 21.4374 32.4374H28.5623C33.6456 32.4374 36.0206 35.1875 36.9581 38.0417C33.8123 40.9375 29.604 42.7083 24.9998 42.7083Z" fill="#F78600"/>
</svg>
