<svg width="34" height="34" viewBox="0 0 34 34" fill="none" xmlns="http://www.w3.org/2000/svg">
<path d="M17.0128 15.2292C13.6921 15.2292 10.9919 12.5276 10.9919 9.20833C10.9919 5.88908 13.6921 3.1875 17.0128 3.1875C20.3334 3.1875 23.0336 5.88908 23.0336 9.20833C23.0336 12.5276 20.3334 15.2292 17.0128 15.2292ZM17.0128 5.3125C14.8637 5.3125 13.1169 7.05925 13.1169 9.20833C13.1169 11.3574 14.8637 13.1042 17.0128 13.1042C19.1619 13.1042 20.9086 11.3574 20.9086 9.20833C20.9086 7.05925 19.1604 5.3125 17.0128 5.3125ZM22.6623 30.8125H11.3376C7.9093 30.8125 6.02081 28.9355 6.02081 25.527C6.02081 21.7572 8.15431 17.3542 14.1666 17.3542H19.8333C25.8456 17.3542 27.9791 21.7558 27.9791 25.527C27.9791 28.9355 26.0907 30.8125 22.6623 30.8125ZM14.1666 19.4792C8.58073 19.4792 8.14581 24.1075 8.14581 25.527C8.14581 27.7426 9.10072 28.6875 11.3376 28.6875H22.6623C24.8992 28.6875 25.8541 27.7426 25.8541 25.527C25.8541 24.1089 25.4192 19.4792 19.8333 19.4792H14.1666Z" fill="#F78600"/>
</svg>
